<svg width="27" height="27" viewBox="0 0 27 27" fill="none" xmlns="http://www.w3.org/2000/svg">
<path d="M6.61949 20.9847C6.28199 20.7597 5.99174 20.4728 5.65199 20.0667C5.47566 19.8508 5.3009 19.6337 5.12774 19.4153C4.60686 18.7684 4.27836 18.4692 3.93974 18.3466C3.79726 18.2994 3.66565 18.2242 3.55267 18.1254C3.43969 18.0266 3.34762 17.9062 3.28188 17.7713C3.21614 17.6364 3.17806 17.4897 3.16988 17.3398C3.16171 17.19 3.1836 17.04 3.23426 16.8987C3.28493 16.7575 3.36335 16.6278 3.46491 16.5173C3.56647 16.4068 3.68911 16.3177 3.82561 16.2553C3.96212 16.1929 4.10972 16.1585 4.25974 16.154C4.40975 16.1496 4.55914 16.1752 4.69911 16.2293C5.54511 16.5331 6.11774 17.0562 6.88949 18.0158C6.78374 17.8842 7.27199 18.4962 7.37661 18.6222C7.59036 18.8776 7.74786 19.0328 7.87161 19.1149C8.10111 19.2691 8.53311 19.3354 9.16536 19.2724C9.19236 18.8427 9.27111 18.4253 9.39261 18.0406C6.05361 17.2238 4.16361 15.0706 4.16361 10.8451C4.16361 9.45005 4.57986 8.19455 5.35386 7.14155C5.10861 6.1358 5.14574 4.91968 5.69361 3.55055C5.75579 3.39568 5.85164 3.25658 5.97423 3.14334C6.09681 3.03009 6.24306 2.94554 6.40236 2.8958C6.49349 2.8688 6.54524 2.85643 6.63636 2.84293C7.53974 2.70343 8.81549 3.03418 10.4782 4.07593C11.4691 3.84396 12.4835 3.72769 13.5011 3.72943C14.5271 3.72943 15.5475 3.84643 16.5206 4.07593C18.1822 3.0263 19.4614 2.69555 20.3704 2.84293C20.4664 2.85793 20.5481 2.87668 20.6156 2.89918C20.7718 2.95068 20.9148 3.03579 21.0345 3.14853C21.1543 3.26126 21.2478 3.39888 21.3086 3.55168C21.8565 4.91968 21.8936 6.13468 21.6484 7.14043C22.4257 8.19343 22.8386 9.44105 22.8386 10.8451C22.8386 15.0717 20.9554 17.2182 17.6164 18.0361C17.757 18.5029 17.8301 19.0238 17.8301 19.5886C17.8301 20.3367 17.8279 21.0499 17.8222 21.8498C17.8222 22.0636 17.82 22.2931 17.8166 22.6441C18.0693 22.699 18.2953 22.8394 18.4566 23.0415C18.6179 23.2436 18.7047 23.4951 18.7023 23.7537C18.7 24.0122 18.6086 24.2621 18.4436 24.4612C18.2786 24.6603 18.05 24.7965 17.7964 24.8468C16.5139 25.1022 15.5644 24.2483 15.5644 23.1312L15.5666 22.6283L15.5722 21.8352C15.5779 21.0398 15.5812 20.3311 15.5812 19.5886C15.5812 18.8044 15.3742 18.2926 15.102 18.0574C14.3584 17.4162 14.7352 16.1967 15.7106 16.0876C19.0474 15.7129 20.5886 14.4203 20.5886 10.8451C20.5886 9.77068 20.2376 8.88305 19.5615 8.14055C19.4192 7.98411 19.3239 7.79074 19.2865 7.5826C19.2491 7.37446 19.2711 7.16 19.35 6.9638C19.5367 6.49805 19.6155 5.88718 19.4569 5.14805L19.4456 5.15143C18.8932 5.3078 18.1969 5.64643 17.3554 6.21905C17.2197 6.31114 17.0655 6.37245 16.9036 6.39868C16.7417 6.42492 16.5761 6.41545 16.4182 6.37093C15.4687 6.10764 14.4876 5.97554 13.5022 5.9783C12.501 5.9783 11.5087 6.11105 10.5862 6.37205C10.4292 6.41605 10.2644 6.42535 10.1033 6.39932C9.94229 6.37329 9.78884 6.31255 9.65361 6.2213C8.80649 5.65093 8.10786 5.31343 7.54986 5.15593C7.38899 5.89055 7.46886 6.49918 7.65449 6.9638C7.73302 7.15995 7.75473 7.37426 7.71713 7.58217C7.67952 7.79009 7.58413 7.98321 7.44186 8.13943C6.77024 8.8763 6.41474 9.77968 6.41474 10.8439C6.41474 14.4124 7.95711 15.7129 11.277 16.0864C12.2501 16.1956 12.6292 17.4106 11.8901 18.0529C11.673 18.2419 11.4064 18.8764 11.4064 19.5874V23.1312C11.4064 24.2393 10.4681 25.0718 9.20136 24.8502C8.9446 24.8051 8.71146 24.6722 8.54179 24.4743C8.37213 24.2764 8.27646 24.0257 8.27115 23.7651C8.26583 23.5044 8.3512 23.25 8.51266 23.0454C8.67412 22.8407 8.90165 22.6984 9.15636 22.6429V21.5292C8.13261 21.5978 7.28774 21.4302 6.62061 20.9836" fill="#ACACAC"/>
</svg>
