<svg width="268" height="250" viewBox="0 0 268 250" fill="none" xmlns="http://www.w3.org/2000/svg">
<line y1="-1" x2="247.001" y2="-1" transform="matrix(0.00243593 0.999997 -0.999949 0.0100603 101.683 2)" stroke="#33A9DC" stroke-width="2"/>
<line y1="-1" x2="247.001" y2="-1" transform="matrix(0.00243593 0.999997 -0.999949 0.0100603 246.687 2)" stroke="#33A9DC" stroke-width="2"/>
<line y1="-1" x2="195.645" y2="-1" transform="matrix(0.00312422 0.999995 -0.999922 0.0125021 0 53.3564)" stroke="#33A9DC" stroke-width="2"/>
<line x1="50.5409" y1="172.188" x2="184.113" y2="172.188" stroke="#33A9DC" stroke-width="2"/>
<line x1="102.285" y1="248" x2="267.144" y2="248" stroke="#33A9DC" stroke-width="2"/>
<line x1="50.5409" y1="108.604" x2="184.113" y2="108.604" stroke="#33A9DC" stroke-width="2"/>
<line y1="52.3564" x2="184.715" y2="52.3564" stroke="#33A9DC" stroke-width="2"/>
<line x1="102.285" y1="1" x2="246.687" y2="1" stroke="#33A9DC" stroke-width="2"/>
<line y1="248" x2="102.285" y2="248" stroke="#33A9DC" stroke-width="2"/>
<line x1="184.113" y1="172.188" x2="266.543" y2="172.188" stroke="#33A9DC" stroke-width="2"/>
<line y1="-1" x2="78.2598" y2="-1" transform="matrix(-0.0076882 -0.99997 0.999496 -0.0317383 267.746 249)" stroke="#33A9DC" stroke-width="2"/>
<line y1="-1" x2="63.6976" y2="-1" transform="matrix(0.00946172 -0.999955 0.999237 0.0390502 184.113 173.192)" stroke="#33A9DC" stroke-width="2"/>
<line x1="183.715" y1="109.604" x2="183.715" y2="53.3564" stroke="#33A9DC" stroke-width="2"/>
<line y1="-1" x2="63.8275" y2="-1" transform="matrix(0.00351454 -0.999994 0.999895 0.0145141 50.5409 170.986)" stroke="#33A9DC" stroke-width="2"/>
</svg>
