<svg width="33" height="33" viewBox="0 0 33 33" fill="none" xmlns="http://www.w3.org/2000/svg">
<g clip-path="url(#clip0_447_1281)">
<path d="M32.9636 25.3202C32.4979 25.4963 31.9838 25.4959 31.5183 25.3191C31.0529 25.1422 30.6682 24.8012 30.437 24.3602L25.837 17.9989L25.1703 17.1095L19.833 24.3682C19.6156 24.7907 19.2518 25.1195 18.8096 25.2932C18.3674 25.467 17.8771 25.4737 17.4303 25.3122L24.3076 16.0855L17.9103 7.75085C18.3703 7.58508 18.8734 7.58289 19.3348 7.74463C19.7962 7.90637 20.1878 8.22217 20.4436 8.63885L25.2116 15.0789L30.0063 8.66552C30.2253 8.25057 30.5892 7.93057 31.0288 7.76636C31.4683 7.60214 31.9528 7.60517 32.3903 7.77485L29.9076 11.0695L26.545 15.4469C26.4516 15.5302 26.3769 15.6323 26.3257 15.7465C26.2745 15.8607 26.2481 15.9844 26.2481 16.1095C26.2481 16.2347 26.2745 16.3584 26.3257 16.4726C26.3769 16.5868 26.4516 16.6889 26.545 16.7722L32.9503 25.3215L32.9636 25.3202ZM0.966306 15.9709L1.52631 13.2042C3.06497 7.73352 9.33697 5.45752 13.6516 8.84418C16.1783 10.8295 16.809 13.6402 16.685 16.8082H2.45164C2.22097 22.4655 6.30364 25.8815 11.5236 24.1362C12.3699 23.8316 13.1273 23.3218 13.7281 22.6526C14.3289 21.9834 14.7544 21.1756 14.9663 20.3015C15.2423 19.4135 15.697 19.2615 16.5316 19.5175C16.3926 20.6007 16.0096 21.6382 15.4117 22.5521C14.8138 23.4659 14.0165 24.2323 13.0796 24.7935C11.5322 25.64 9.75674 25.9754 8.00714 25.752C6.25753 25.5286 4.62337 24.7577 3.33831 23.5495C2.06768 22.1194 1.29974 20.3128 1.15164 18.4055C1.15164 18.0922 1.04497 17.7989 0.972972 17.5175C0.966482 17.0024 0.963371 16.4873 0.963639 15.9722L0.966306 15.9709ZM2.46897 15.5895H15.341C15.261 11.4882 12.673 8.57885 9.22097 8.55218C5.37831 8.49885 2.62897 11.3442 2.45964 15.5709L2.46897 15.5895Z" fill="#ACACAC"/>
</g>
<defs>
<clipPath id="clip0_447_1281">
<rect width="32" height="32" fill="white" transform="translate(0.963623 0.536194)"/>
</clipPath>
</defs>
</svg>
