<svg width="33" height="33" viewBox="0 0 33 33" fill="none" xmlns="http://www.w3.org/2000/svg">
<path opacity="0.6" d="M15.9609 3.54266H11.5156C10.3368 3.54266 9.20627 4.01094 8.37274 4.84448C7.5392 5.67801 7.07092 6.80853 7.07092 7.98733C7.07092 9.16613 7.5392 10.2966 8.37274 11.1302C9.20627 11.9637 10.3368 12.432 11.5156 12.432H15.9609V3.54266Z" fill="#ACACAC"/>
<path opacity="0.4" d="M15.9609 12.432H11.5155C10.3369 12.432 9.20656 12.9002 8.37315 13.7336C7.53974 14.567 7.07153 15.6974 7.07153 16.876C7.07153 18.0546 7.53974 19.185 8.37315 20.0184C9.20656 20.8518 10.3369 21.32 11.5155 21.32H15.9609V12.432Z" fill="#ACACAC"/>
<path d="M24.8489 16.876C24.8489 18.0548 24.3807 19.1853 23.5471 20.0189C22.7136 20.8524 21.5831 21.3207 20.4043 21.3207C19.2255 21.3207 18.0949 20.8524 17.2614 20.0189C16.4279 19.1853 15.9596 18.0548 15.9596 16.876C15.9596 15.6972 16.4279 14.5667 17.2614 13.7331C18.0949 12.8996 19.2255 12.4313 20.4043 12.4313C21.5831 12.4313 22.7136 12.8996 23.5471 13.7331C24.3807 14.5667 24.8489 15.6972 24.8489 16.876Z" fill="#ACACAC"/>
<path opacity="0.2" d="M11.5155 21.3213H15.9609V25.7653C15.9606 26.6441 15.6998 27.5031 15.2114 28.2337C14.723 28.9643 14.0289 29.5337 13.2169 29.8699C12.4049 30.2061 11.5115 30.294 10.6496 30.1225C9.78764 29.951 8.99592 29.5278 8.3745 28.9063C7.75307 28.2849 7.32985 27.4932 7.15833 26.6313C6.98682 25.7693 7.07471 24.8759 7.4109 24.0639C7.74709 23.2519 8.31648 22.5579 9.04709 22.0695C9.7777 21.581 10.6367 21.3215 11.5155 21.3213Z" fill="#ACACAC"/>
<path opacity="0.8" d="M15.9596 3.54266H20.4036C21.5824 3.54266 22.7129 4.01094 23.5464 4.84448C24.38 5.67801 24.8483 6.80853 24.8483 7.98733C24.8483 9.16613 24.38 10.2966 23.5464 11.1302C22.7129 11.9637 21.5824 12.432 20.4036 12.432H15.9596V3.54266Z" fill="#ACACAC"/>
</svg>
