<svg width="33" height="33" viewBox="0 0 33 33" fill="none" xmlns="http://www.w3.org/2000/svg">
<g clip-path="url(#clip0_447_1297)">
<path d="M31.8134 14.8361L18.0344 1.05759C17.2414 0.264088 15.9544 0.264088 15.1602 1.05759L12.2992 3.91909L15.9287 7.54859C16.7724 7.26384 17.7394 7.45484 18.4117 8.12709C19.0874 8.80359 19.2769 9.77884 18.9852 10.6253L22.4832 14.1236C23.3294 13.8318 24.3062 14.0203 24.9817 14.6973C25.9267 15.6416 25.9267 17.1723 24.9817 18.1171C24.7571 18.3418 24.4904 18.52 24.197 18.6416C23.9035 18.7632 23.5889 18.8258 23.2713 18.8258C22.9536 18.8258 22.6391 18.7632 22.3456 18.6416C22.0521 18.52 21.7855 18.3418 21.5609 18.1171C21.2235 17.7795 20.9935 17.3496 20.8999 16.8816C20.8062 16.4135 20.8531 15.9283 21.0347 15.4868L17.7727 12.2248L17.7722 20.8101C18.0088 20.9266 18.2249 21.081 18.4119 21.2671C19.3564 22.2113 19.3564 23.7416 18.4119 24.6878C17.4672 25.6321 15.9359 25.6321 14.9922 24.6878C14.0477 23.7418 14.0477 22.2116 14.9922 21.2671C15.2184 21.0404 15.4876 20.8611 15.7839 20.7396V12.0748C15.4873 11.9536 15.2181 11.7742 14.9922 11.5471C14.2767 10.8321 14.1044 9.78209 14.4714 8.90309L10.8932 5.32484L1.44515 14.7723C1.06398 15.1536 0.849854 15.6707 0.849854 16.2098C0.849854 16.749 1.06398 17.266 1.44515 17.6473L15.2244 31.4258C16.0179 32.2193 17.3044 32.2193 18.0992 31.4258L31.8137 17.7113C32.1947 17.3299 32.4088 16.8128 32.4087 16.2737C32.4087 15.7345 32.1946 15.2174 31.8134 14.8361Z" fill="#ACACAC"/>
</g>
<defs>
<clipPath id="clip0_447_1297">
<rect width="32" height="32" fill="white" transform="translate(0.62915 0.241577)"/>
</clipPath>
</defs>
</svg>
