<svg width="33" height="33" viewBox="0 0 33 33" fill="none" xmlns="http://www.w3.org/2000/svg">
<g clip-path="url(#clip0_447_1327)">
<path d="M5.95377 14.9158C4.87077 15.3549 2.00477 17.3314 1.45277 17.917C0.87952 18.5025 0.709645 17.5876 1.30402 16.0687C1.77102 14.8426 2.96014 13.1773 4.95577 11.75C6.12327 10.9265 8.69227 9.73702 10.2633 9.04164C10.5818 8.89511 14.7005 7.39466 18.3734 6.64433C18.6919 6.57107 17.9913 7.10181 17.885 7.39466C17.333 8.78542 6.31439 14.7511 6.31439 14.7511L5.95377 14.9158ZM21.473 31.6966C21.664 32.6848 21.4943 32.758 20.3055 32.8861C19.1165 33.0143 18.246 32.6298 17.9276 32.3737C17.609 32.1173 17.5455 31.5502 17.8639 31.0378C18.0551 30.7084 18.2461 30.5987 18.3524 30.196C18.4584 29.8118 18.5434 29.7202 18.6283 29.5739C18.7131 29.4457 18.7345 29.3175 18.7556 28.4209C18.7769 27.5243 18.7556 25.8407 18.8619 25.1271C18.9681 24.3951 22.6409 25.4563 22.6409 25.4563C22.6409 25.4563 21.7704 27.3229 21.5369 27.7804C21.3034 28.238 21.3246 29.1163 21.3246 29.2993C21.3246 29.4823 21.2396 29.8482 21.1759 29.8665C21.1123 29.8848 21.3884 30.3606 21.2609 30.6352C21.1759 30.8914 21.4519 31.5502 21.473 31.6966ZM22.8743 3.71639C22.7468 3.02101 22.8743 1.64835 23.0441 1.42898C23.5749 0.806649 26.3773 0.733491 26.9718 1.4655C27.2265 1.79488 27.2053 2.56342 27.1629 3.05753C27.1204 3.55165 26.9718 4.61303 26.9505 4.96083C26.9294 5.21705 23.8509 5.61947 23.1715 4.9242C22.9804 4.74125 22.8743 3.71639 22.8743 3.71639ZM29.116 29.9214C30.4111 30.7268 31.4089 30.8731 32.067 31.1658C32.7251 31.4588 32.5554 32.026 31.4514 32.1907C30.5596 32.3371 29.1585 32.0443 28.2244 32.0443C27.2903 32.0443 25.2096 32.1358 24.6576 31.8065C24.0208 31.4221 24.2966 30.7084 24.2966 30.7084C24.4666 30.3059 24.891 29.409 24.7636 28.6771C24.6363 27.9452 24.4664 27.5426 24.148 26.8655C23.8295 26.1885 23.5961 24.5232 23.8934 24.4316C24.1906 24.34 24.1056 24.4316 24.4878 24.5049C24.8699 24.5779 25.2945 24.6878 26.1225 24.6878C26.9505 24.6878 27.8634 24.5779 28.1819 24.5231C28.5004 24.4682 28.7551 24.4132 28.6489 24.9805C28.5428 25.5478 28.2244 26.6092 28.2031 27.4328C28.1819 28.2563 28.1819 29.2079 28.2456 29.3725C28.3093 29.5373 28.7764 29.7202 29.116 29.9215V29.9214Z" fill="black"/>
<path d="M24.5728 5.54631C22.2375 7.28487 17.7153 7.76045 11.0065 9.99312C9.28692 10.5604 4.70117 12.2622 3.59717 14.0374C7.31242 12.1892 8.69242 14.7328 8.98967 17.3496C9.26554 19.8017 10.688 21.0828 14.3397 21.0094C18.0975 20.9364 19.2439 22.8211 20.2842 25.0355C22.301 16.5626 25.5282 14.9157 27.6087 13.4701C32.0247 10.3773 26.5897 4.92408 24.5728 5.54631Z" fill="#ACACAC"/>
<path d="M24.5728 5.5463C18.9679 7.2298 13.4268 7.65065 6.90901 11.1092C5.35926 11.9327 2.08976 13.7993 1.45276 17.3678C3.83051 15.0986 9.32913 12.2439 16.0593 10.4323C19.4561 9.51721 21.9401 8.91341 24.9549 7.90676C24.7426 6.73558 24.7426 6.2781 24.5728 5.54608V5.5463Z" fill="#ACACAC"/>
<path d="M31.7274 15.5745C31.7274 15.5745 31.324 16.764 30.5173 17.1484C30.5173 17.1484 29.9229 17.3314 28.734 16.7641C28.3943 16.5994 28.1395 16.0322 28.1607 15.849C28.1819 15.4098 28.5004 15.2086 28.5004 15.2086C28.5004 15.2086 28.8402 14.7145 29.2434 14.7328C29.6469 14.7511 30.3263 14.8059 30.5387 14.6412C30.7295 14.4582 31.7699 14.9706 31.7274 15.5745ZM23.0654 4.06407C23.0654 4.06407 22.9805 4.99735 22.8319 5.58294C22.8107 5.69284 22.1738 5.74757 21.7067 5.91231C22.5983 8.10824 27.9697 8.08993 28.6704 7.01022C28.3307 6.80907 27.6513 6.4979 27.3329 6.38811C27.0143 6.27821 27.0355 6.29653 27.0143 5.7842C26.993 5.27177 26.9505 4.32028 26.908 4.06407C26.8655 3.80775 23.5749 3.80775 23.0654 4.06407Z" fill="black"/>
<path d="M23.2776 4.06408C23.2776 4.06408 23.2776 4.59472 23.2139 5.10704C23.1929 5.34505 23.1716 5.49137 23.1291 5.67432C23.1079 5.78422 23.851 6.22327 24.0632 7.19319C25.0824 9.15122 27.439 8.18142 28.4155 7.24814C28.0759 7.04676 27.5239 6.77234 26.887 6.55276C26.5685 6.44286 26.717 6.20507 26.6959 5.69274C26.6746 5.18031 26.5896 4.42998 26.5472 4.15545C26.5047 3.88102 23.7872 3.80776 23.2776 4.06408Z" fill="#EFEFEF"/>
<path d="M23.0653 4.06407C23.0653 4.06407 23.0441 4.39344 22.9805 4.77777C23.2563 5.01556 23.6173 5.34504 23.8935 5.5463C24.0845 5.69284 24.5515 5.67452 24.9762 5.67452C25.3583 5.67452 25.698 5.71105 25.8466 5.63789C26.1865 5.49135 26.6746 5.12546 26.9506 4.85092C26.9295 4.52155 26.9082 4.21049 26.8871 4.06407C26.8656 3.80775 23.5748 3.80775 23.0653 4.06407Z" fill="black"/>
<path d="M24.9974 5.45481C24.7425 5.45481 24.4452 5.43649 24.2117 5.39986C24.1055 5.38154 23.9995 5.3267 23.9145 5.29007C23.7659 5.19849 23.6172 5.0888 23.4476 4.9789C23.1077 4.75932 23.0866 4.63121 23.0866 4.57648C23.2352 3.42351 23.0441 2.45371 23.0441 2.45371C23.0441 2.45371 22.8954 1.95948 23.7022 1.83138C24.509 1.70327 24.9972 1.68506 24.9972 1.68506C24.9972 1.68506 25.5069 1.68506 26.2922 1.83138C27.0991 1.95959 26.9505 2.45371 26.9505 2.45371C26.9505 2.45371 26.7594 3.42351 26.908 4.57648C26.908 4.63121 26.8869 4.75932 26.5471 4.9789C26.2499 5.16196 26.0164 5.36323 25.7829 5.39986C25.5492 5.43649 25.252 5.45481 24.9974 5.45481Z" fill="black"/>
<path d="M24.9974 1.20929C23.5962 1.20929 23.3202 1.53866 22.9168 1.90467C22.8319 1.99614 22.8956 2.5451 23.0443 3.71639H23.2353C23.2353 3.71639 23.1078 3.38691 23.1291 3.00258C23.1503 2.61837 23.2353 2.63668 23.1716 2.5451C23.0866 2.4352 22.9168 2.25225 23.2991 2.0693C23.6811 1.88635 24.2756 2.21573 24.9974 2.23404C25.7192 2.21573 26.3349 1.88635 26.7171 2.0693C27.0992 2.25225 26.9293 2.43531 26.8446 2.5451C26.7596 2.655 26.8657 2.61837 26.8869 3.00258C26.9082 3.38691 26.7807 3.71639 26.7807 3.71639H26.9718C27.0992 2.54521 27.1841 2.03278 27.1204 1.9412C26.7594 1.53866 26.3986 1.2275 24.9974 1.20929ZM31.7274 15.6294C31.7274 15.6294 31.3241 16.7457 30.5387 17.13C30.3687 17.0567 30.3899 16.947 30.2412 16.7823C30.1987 16.7275 30.0502 16.6907 29.9866 16.6359C29.9228 16.5809 29.9441 16.4895 29.8378 16.4163C29.7529 16.343 29.6893 16.398 29.6043 16.343C29.5196 16.27 29.4981 16.1784 29.4346 16.1237C29.3921 16.087 29.2222 16.0687 29.1798 16.0321C29.0736 15.9405 28.1396 15.7759 28.1821 15.5928C28.2668 15.3183 28.4368 15.117 28.4368 15.117C28.4368 15.117 28.8402 14.6047 29.2434 14.6229C29.6468 14.6412 30.0289 14.7145 30.2413 14.5497C30.4749 14.3667 31.7913 15.0438 31.7274 15.6293V15.6294Z" fill="black"/>
<path d="M28.9675 7.54096C28.9675 7.54096 30.305 7.26643 31.2179 8.01676C32.1309 8.78541 32.067 9.73689 31.7911 10.3225C32.0246 10.5604 32.4493 11.2191 32.1309 12.0061C33.5321 13.0307 32.9164 14.6047 31.6638 15.6477C31.6638 15.6477 31.3665 14.6961 30.1776 14.6412C30.2201 14.2753 29.0736 13.9824 29.6044 13.0308C28.7976 12.8661 28.8189 12.3903 28.6915 11.8047C28.5853 11.2191 28.9675 7.54096 28.9675 7.54096Z" fill="black"/>
<path d="M28.4791 8.05341C28.4791 8.05341 30.0288 7.37634 30.9418 8.14499C31.8547 8.91353 31.5998 9.75522 31.3239 10.3408C31.5574 10.5786 32.1094 11.2559 31.7697 12.0609C31.7059 12.244 31.2389 12.244 30.8992 12.7198C31.7483 12.2987 32.2792 12.4086 32.4703 12.9393C32.7676 13.7628 32.1093 14.7509 31.5362 15.3C31.5362 15.2816 31.5149 15.2633 31.5149 15.245C31.4299 15.5196 31.3238 16.0502 30.6869 16.6358C30.3684 16.9286 30.1137 16.8921 29.7528 16.8188C29.3282 16.7272 29.1796 16.5625 28.5852 16.2882C28.2454 16.1234 28.4364 15.9221 28.4364 15.7574C28.4364 15.7208 28.4789 15.6659 28.5427 15.5928C28.5852 15.5012 28.7126 15.3549 28.9036 15.1902C28.9036 15.1902 29.1796 14.8608 29.5831 14.879C29.9864 14.8973 30.4109 14.8243 30.5172 14.7327C30.5172 14.0922 29.6681 14.0738 29.9652 12.9759C29.9864 12.921 30.0927 12.8294 30.4322 12.7929C29.9227 12.7013 29.6892 12.683 29.3282 12.3903C29.0734 12.1891 28.8824 11.9328 28.8187 11.6035C28.6913 11.0362 28.4791 8.05341 28.4791 8.05341Z" fill="#EFEFEF"/>
<path d="M23.9995 6.90051C23.872 6.75398 23.214 6.02207 21.9614 5.72933C21.6004 5.63775 21.3669 5.89396 21.0061 6.07702C20.8999 6.02207 20.4327 5.83912 20.178 5.96712C19.9232 6.09512 19.7535 6.22334 19.4986 6.31481C19.3711 6.25986 19.0316 6.25986 18.7556 6.35144C18.4796 6.4246 18.055 6.58923 17.6516 7.06503C17.3969 7.852 22.1524 7.2663 22.1524 7.2663L23.9995 6.90051Z" fill="black"/>
<path d="M24.042 6.90053C23.3625 6.69916 23.4687 6.02209 21.9613 5.9123C21.6641 5.89398 21.473 6.09525 21.2607 6.22336C21.367 6.31494 21.473 6.46126 21.5367 6.60757C21.3456 6.42473 21.006 6.18673 20.6661 6.13178C20.3477 6.07704 20.1353 6.27831 19.7957 6.42473C19.8593 6.47947 19.9231 6.57105 20.008 6.68095C19.7106 6.51621 19.4985 6.46136 19.0951 6.58936C18.8191 6.66252 18.2883 6.8639 17.885 7.35801C17.6302 8.14487 22.1735 7.26643 22.1735 7.26643L24.042 6.90053Z" fill="#ACACAC"/>
<path d="M28.0334 7.19325C28.0334 7.19325 28.0334 6.99199 28.0122 6.80904C28.0122 6.7724 27.8423 6.68082 27.8423 6.6443L27.7998 6.60766C27.7998 6.60766 28.1396 6.44303 28.3943 6.53451C28.6702 6.60777 28.8188 6.91883 28.8188 6.91883C29.3072 6.77251 29.3496 6.93715 29.5832 7.15673C30.0928 7.06515 30.1563 7.22989 30.4749 7.63253C30.4749 7.63253 30.0928 7.57758 29.3497 7.68737C28.6278 7.77873 28.0334 7.17494 28.0334 7.19325Z" fill="black"/>
<path d="M27.9483 7.10179C27.9483 7.10179 28.0757 7.01021 28.0332 6.9919C28.2667 6.882 28.5852 6.7541 28.7338 7.10179C29.2221 6.95526 29.2859 7.15674 29.5194 7.37633C30.1137 7.13843 30.1561 7.43106 30.1987 7.55928C30.0076 7.55928 29.7317 7.57759 29.3495 7.61412C28.6277 7.7057 27.9271 7.08337 27.9483 7.10179Z" fill="#ACACAC"/>
<path d="M20.73 6.64435C20.73 6.64435 21.9401 7.01025 22.9593 6.9553C23.9784 6.88225 25.7193 6.80898 26.6533 7.28478C26.6533 7.28478 27.6086 6.99193 28.5004 7.1932C29.3921 7.39446 31.0269 8.71207 30.5386 10.1028C30.4961 10.1944 30.2201 10.3407 29.9016 10.4323C29.9016 10.4323 30.0716 11.0545 29.7743 11.5669C29.477 12.061 28.8189 13.0126 28.7976 14.3302C28.7764 14.5497 28.734 15.0072 28.6915 15.2267C27.0355 15.172 24.4879 14.6411 21.9828 14.6779C22.0039 14.44 22.0251 14.2935 22.0465 14.0556H22.11C21.9825 13.4517 21.9401 13.1406 21.8128 12.6832C21.006 12.244 20.1566 11.7316 19.435 10.7617C18.7344 9.79177 20.73 6.64435 20.73 6.64435ZM28.925 16.5261C28.925 16.5261 30.2413 20.5887 28.6915 22.2906C28.6915 22.2906 28.925 23.0775 28.3943 23.9193C28.3093 24.2852 28.203 24.6147 28.1395 24.9806C27.8635 26.4994 27.3964 27.1399 27.269 29.5737L25.9951 29.5555C25.9951 29.5555 25.8464 27.7987 25.4006 26.8654C25.146 26.3348 24.148 25.621 24.1906 24.9074C24.2331 24.3584 24.3604 23.901 25.4433 23.1688C25.5281 22.1076 24.2968 21.101 24.4879 17.1483L28.925 16.5261Z" fill="black"/>
<path d="M28.5429 16.3614C28.8826 18.2279 29.6681 20.9911 28.2456 22.3454C28.3092 22.6016 28.3517 22.9676 28.2669 23.3883C28.2244 23.6079 28.1394 23.8458 28.0334 24.102C27.821 24.5412 27.736 25.1816 27.6724 25.5659C27.3964 27.0848 27.3964 27.1582 27.269 29.592L25.9951 29.5737C25.9951 29.5737 25.8464 27.8169 25.4006 26.8836C25.146 26.353 24.6151 25.8955 24.5727 25.1818C24.5302 24.6329 24.9761 23.535 26.0377 23.5715C25.974 21.3572 24.785 21.7964 24.4666 17.1848L28.5429 16.3614ZM20.73 6.64435C20.73 6.64435 21.1971 6.77246 21.7066 6.80898C22.2161 6.84561 22.7682 6.80898 23.2564 6.79066C24.2755 6.71751 25.7191 6.62603 26.6745 7.10183C26.6745 7.10183 27.2052 6.9553 27.7786 6.99193C28.0334 7.01025 28.2881 7.1932 28.5854 7.26646C29.5195 7.46773 30.4111 8.80354 30.0076 10.0115C29.9651 10.103 29.668 10.0115 29.3282 10.103C29.3919 10.3591 29.4345 10.9447 29.0947 11.567C28.7339 12.1892 28.2667 12.9944 28.3516 14.5315C26.1225 14.44 25.1246 14.312 22.9166 14.2205C22.7255 13.5433 22.5981 12.8661 22.5769 12.5186C22.8742 12.3903 23.0439 12.2808 23.2776 12.0611C22.6407 12.1527 22.3859 12.116 22.0036 11.9329C21.6215 11.7499 20.9421 11.1643 20.6024 10.7801C20.56 10.7435 20.3266 11.3473 19.7959 11.3657C19.6046 11.1278 20.4114 10.4506 20.2627 10.1945C19.7321 9.26113 20.73 6.64435 20.73 6.64435Z" fill="#EFEFEF"/>
<path d="M28.7125 14.8426C28.7125 14.8426 28.755 15.5013 28.755 15.666C28.755 15.849 28.925 16.3979 28.9461 16.6542C28.7126 17.0019 27.6936 17.7888 25.8465 18.0816C24.0206 18.411 21.6003 15.9405 21.6003 15.9405C21.6641 15.7026 21.8763 15.0072 22.025 14.6412C22.0462 14.6046 22.0887 14.5131 22.0887 14.4766C22.2798 14.2387 28.7125 14.8426 28.7125 14.8426Z" fill="black"/>
<path d="M28.2456 14.8975C28.2456 15.3549 28.3305 15.6844 28.3944 15.9771C28.5004 16.5079 28.6701 16.8556 28.6701 17.2033C28.6701 18.2645 27.0566 18.0816 25.6978 18.1182C23.872 18.4477 22.3223 15.9772 22.3223 15.9772C22.4495 15.5563 22.5345 15.0806 22.7255 14.6778C22.7468 14.4584 22.7893 14.1838 22.8105 14.0557C25.4005 14.0557 27.2264 14.1839 28.288 14.2752C28.3305 14.4766 28.288 14.8243 28.2456 14.8974V14.8975Z" fill="#EFEFEF"/>
<path d="M26.2075 17.2581C26.2075 17.2581 25.0823 15.0987 21.7065 15.7393C20.8999 17.6973 19.817 19.9482 20.5178 22.3821C19.817 23.2056 19.0103 23.6632 19.0103 25.1819C19.0103 26.7008 19.0953 26.957 19.0953 26.957L21.5791 27.0669C21.5791 27.0669 22.3859 26.1703 22.7043 25.2003C22.7893 24.9257 22.8743 24.4317 22.8105 23.8644C22.8954 23.7546 23.2563 23.4985 23.2989 23.0044C23.2989 23.0044 24.5089 22.4555 25.2096 21.1195C25.8679 19.9115 25.6979 18.8684 26.2074 17.258L26.2075 17.2581Z" fill="black"/>
<path d="M26.2075 17.2581C26.1438 17.0568 25.2945 15.0804 22.1525 15.6659C20.3054 19.9115 20.9848 21.6683 21.2608 22.4368C20.008 23.8092 19.4349 24.1021 19.6898 26.8836H21.3458C22.11 25.8406 22.2799 25.4562 22.3223 24.0838C22.3223 24.0288 22.0889 24.1937 21.9189 24.3766C22.0464 23.8093 22.4073 23.6995 22.6833 23.3518C22.8106 23.2053 22.9168 22.9858 22.9168 22.693C24.4029 21.833 24.9549 20.7533 25.2733 19.6369C25.5281 18.8684 25.8253 17.6057 26.2074 17.2579L26.2075 17.2581Z" fill="#EFEFEF"/>
<path d="M20.9636 14.3118C20.9636 14.3118 21.5368 14.3301 22.0464 14.4766C22.5348 14.6229 22.5348 14.7144 22.7258 14.8974C22.9169 15.0806 23.3839 15.3549 23.2991 15.6294C23.2566 15.7759 23.1504 15.8124 23.0018 15.9405C22.9381 15.9954 22.4709 16.4346 22.3649 16.4894C22.3012 16.5261 22.2162 16.581 22.1525 16.6177L21.8342 16.8006C21.6218 16.8922 21.4732 16.947 21.2397 16.9287C21.2397 16.9287 20.7089 16.9104 20.3692 16.5993C20.3692 16.5993 20.3267 16.4528 20.4117 16.3798C20.4117 16.3798 19.9658 16.0503 19.8384 15.8307C19.7109 15.6112 19.7109 15.3002 19.7959 15.1354C19.8384 14.9706 20.6663 14.5131 20.9636 14.3118ZM21.4944 32.1174L21.4307 32.575C21.4307 32.575 21.2397 32.7763 19.8173 32.7579C18.3736 32.7396 17.9914 32.3554 17.864 32.154L17.7792 31.6782C17.7792 31.6782 18.0552 31.3305 18.1189 31.3305C18.5859 31.3672 20.1783 31.9161 21.2823 32.0626C21.3882 32.0626 21.4094 32.099 21.4944 32.1174ZM24.5728 31.1841C24.5728 31.3854 24.5515 31.3854 24.5515 31.5868C24.8063 31.7514 25.4433 31.843 26.6533 31.8246C28.4154 31.7879 30.0502 32.2821 32.0458 31.9892L32.0671 31.6598L31.8761 31.6416L24.8063 31.1475L24.5728 31.1841Z" fill="black"/>
<path d="M26.1225 31.8246H26.6532C27.7999 31.788 28.8826 32.0076 30.0501 32.0625C30.6659 32.0442 31.4301 31.916 31.3665 31.5318L25.3371 31.0925C24.9761 31.4402 25.2521 31.733 26.1225 31.8246ZM19.2014 24.1204C19.3925 24.2303 20.6876 24.889 22.7894 24.7975C22.7469 25.1451 22.7681 25.8223 21.834 27.0117C21.3669 27.5973 20.9634 28.6222 20.8786 29.9214C20.8999 30.2143 21.0909 30.4704 20.8361 30.8547C20.9211 31.0925 21.2607 31.5684 21.4306 31.8612C21.6004 32.154 21.6854 32.4834 20.56 32.5017C19.4136 32.52 17.5665 32.4101 17.8214 31.6417C17.9489 31.239 18.3097 30.8182 18.3522 30.6535C18.3947 30.4887 18.3947 29.9947 18.7555 29.6652C19.074 28.7503 18.9679 27.8719 18.9042 27.0484C18.798 26.1882 18.7767 24.8159 19.2014 24.1205V24.1204ZM21.1759 9.20623C22.6832 7.46768 21.4094 6.07702 18.9892 6.49776C18.0125 6.6625 17.036 7.2482 16.9722 8.30948C16.6537 8.34611 15.932 8.38264 15.571 9.51729C15.2951 10.3956 15.1465 10.5603 14.6581 10.9994C14.3396 11.3106 14.6794 11.951 14.9129 12.4087C15.6984 13.9824 18.1186 14.1287 19.7534 15.3182C20.3054 15.1901 20.8786 14.6595 21.0484 14.3119C19.6684 12.9026 19.9656 12.3538 19.4136 11.6218C20.0081 11.4386 21.3669 10.7252 21.1759 9.20623Z" fill="black"/>
<path d="M20.8786 9.09644C20.9633 8.98654 21.1121 8.74875 21.1758 8.65717C21.1971 8.63885 21.4306 8.98654 21.4518 8.96833C22.025 8.16305 22.1736 6.99188 21.5155 6.88209C21.3667 6.86377 21.0908 6.80893 20.8573 6.73555C20.4327 6.60755 20.0506 6.60755 19.3711 6.71734C18.4371 6.86377 17.503 7.44936 17.503 8.29116C17.503 8.34611 18.161 8.51074 18.3521 9.18792C18.0336 8.80349 17.4816 8.38264 16.8233 8.74864C16.1228 9.13286 16.4837 10.0113 15.5496 10.9262C15.2311 11.2373 15.2736 11.6033 15.6133 12.3353C16.1652 13.4882 18.7766 14.1104 20.1991 15.2083C20.5387 15.0802 20.7722 14.7875 20.9421 14.5679C19.9867 13.7078 19.6046 12.9026 19.3286 12.317C18.989 11.64 18.6067 11.2557 17.8636 10.7431C18.2458 10.8713 18.5432 10.9993 18.7128 11.1091C18.9038 11.219 19.1798 11.2373 19.4347 11.1641C20.3478 10.8897 20.8361 9.79171 20.8785 9.09644H20.8786Z" fill="#EFEFEF"/>
<path d="M30.1139 9.38924C30.0501 10.0846 29.4557 9.73693 29.1374 9.60882C28.5004 9.37092 27.8634 9.20629 27.1204 9.20629C26.3772 9.20629 25.4219 9.26124 24.594 9.44419C23.4476 9.71861 23.1077 9.7004 22.5982 9.48071C22.0889 9.24282 21.1972 8.65723 21.1972 8.65723C21.1972 8.65723 21.176 8.84028 21.3882 9.07818C21.6641 9.37092 22.28 9.73693 23.1079 9.97472C23.5112 10.0846 23.8297 10.0114 24.1907 9.9382C26.0802 9.53566 28.0757 9.4624 29.753 10.3407C29.838 10.3774 30.1352 10.2675 30.2626 10.1028C30.4322 9.86504 30.1139 9.38924 30.1139 9.38924Z" fill="black"/>
<path d="M20.454 16.3613C20.6239 16.4529 20.8361 16.5079 21.0696 16.6725C21.0696 16.6725 20.8786 16.6725 20.7937 16.5993C20.6875 16.5444 20.4752 16.3798 20.454 16.3613Z" fill="#001423"/>
<path d="M26.5896 1.84969C26.5258 1.68506 26.0587 1.39221 24.9761 1.39221C23.8083 1.39221 23.4686 1.70327 23.4476 1.86801C23.4476 1.92296 23.3626 2.50855 23.3413 2.74634C23.3413 2.74634 23.3413 3.03919 23.3626 3.47835C23.3838 3.77109 23.4687 3.93583 23.5111 4.32016C23.5536 4.72258 23.6811 4.97891 23.9144 5.30828C24.0207 5.36312 24.1056 5.41818 24.2117 5.43649C24.6363 5.50955 25.3794 5.52786 25.7828 5.43649C26.0163 5.38155 26.3136 5.03386 26.3772 4.72269C26.4622 4.33847 26.5471 4.06394 26.5683 3.82604C26.6108 3.58825 26.6321 3.0575 26.6532 2.91108C26.7169 2.50855 26.6107 1.88633 26.5894 1.8498L26.5896 1.84969Z" fill="#EFEFEF"/>
<path d="M24.3604 24.4682C24.3604 24.4682 25.4857 24.889 28.2669 24.523C28.2669 24.523 27.4814 27.9268 27.8424 29.6286C27.8424 29.6286 28.2032 30.0679 30.8782 30.9096C30.8782 30.9096 32.0671 31.1658 32.0247 31.6782C32.0247 31.6782 32.0672 31.7881 30.6235 31.7514C29.18 31.7147 27.821 31.4952 26.8657 31.4952C25.9104 31.4952 24.8912 31.5318 24.7215 31.2939C24.5304 31.0743 24.764 30.5069 25.0399 30.1776C25.3374 29.83 25.2522 29.5737 25.2311 28.9515C25.1671 27.3229 23.7235 25.6394 24.3604 24.4682Z" fill="black"/>
<path d="M24.1268 24.7792C23.9781 24.9623 24.148 25.6576 24.3603 26.3347C24.5726 27.0117 25.0397 27.4143 25.1458 28.5306C25.2521 29.6285 25.2733 29.775 24.9123 30.4154C24.5513 31.0558 24.4452 31.6416 25.6977 31.6599C26.9502 31.6782 27.6298 31.6416 28.9036 31.8063C30.1775 31.9709 30.6233 32.0258 31.324 31.9344C32.0246 31.8428 32.1731 31.6415 31.876 31.4586C31.5787 31.2756 30.3472 31.0743 29.8166 30.7082C29.307 30.3788 27.8633 29.8299 27.8422 29.6835C27.7785 29.1893 27.7572 27.396 27.8635 26.8104C27.9696 26.2247 28.1181 25.383 28.1606 25.1635C28.2031 24.9439 28.4153 24.7242 28.0543 24.7975C27.6936 24.8705 26.3348 25.0354 25.3157 24.9804C24.2967 24.9256 24.1907 24.7243 24.1268 24.7792Z" fill="#ACACAC"/>
<path opacity="0.3" d="M24.8488 30.4339C25.2096 30.5802 25.7405 30.6901 26.1438 30.6901C26.1438 30.6901 25.995 31.294 26.2288 31.6599C26.4621 32.0259 24.5303 31.8064 24.5303 31.8064L24.4454 30.5071L24.8488 30.4338V30.4339ZM30.4749 32.0076C30.8145 31.916 31.0481 31.5868 30.7721 31.2757C30.4749 30.9645 30.2201 30.9097 30.6021 30.8914C30.9844 30.8731 32.3856 31.6051 32.3856 31.6051L31.6636 32.1723L30.4749 32.0076ZM24.0631 25.4929C24.5515 25.6394 25.2945 25.6759 25.9315 25.6576C26.5684 25.6393 27.5238 25.566 28.1395 25.3831C28.7551 25.2001 28.5004 25.5843 28.5004 25.5843L28.1606 25.8589C28.1606 25.8589 27.354 26.1334 26.0378 26.1152C24.4879 26.0969 24.0208 25.9504 24.0208 25.9504L24.0633 25.4929H24.0631ZM24.1056 26.4079C24.594 26.5545 25.3369 26.591 25.9739 26.5727C26.6108 26.5544 27.4601 26.5544 28.0758 26.3531C28.3305 26.2798 28.182 26.591 28.182 26.591L28.0758 26.7556C28.0758 26.7556 27.2478 27.0118 25.9526 26.9934C24.4029 26.9752 24.1269 26.8653 24.1269 26.8653L24.1056 26.4079Z" fill="black"/>
<path d="M22.7043 13.5799C22.7043 13.7081 24.3603 14.4216 25.2732 14.568C26.1862 14.7144 28.097 14.568 28.3941 14.5132L28.3516 14.7694C28.3516 14.7694 26.08 15.0622 24.3391 14.6596C22.5982 14.2571 22.7893 14.1655 22.7893 14.1655L22.7043 13.5799Z" fill="black"/>
<path d="M19.1589 29.1894C19.4136 29.2993 20.3266 29.5005 20.921 29.3907C21.0059 29.3724 20.921 28.1279 21.1546 27.5608C21.4943 26.7738 22.0463 26.1334 22.3009 24.7426C21.4093 24.6693 20.3903 24.4681 19.8594 24.3217C19.1801 26.1151 19.4138 27.6522 19.1589 29.1894ZM20.5815 30.3423C20.7301 30.3789 20.8361 30.5252 20.8788 30.4339C20.9635 30.269 20.73 29.9581 20.7088 29.7385V29.7202C20.5178 29.5739 19.2228 29.5555 19.3076 29.6286C19.159 29.8665 18.9255 29.83 18.8406 30.3058C18.7983 30.5436 19.138 30.3424 19.4563 30.3241C18.8831 30.6533 18.225 31.0744 18.1188 31.4403C17.9914 31.9526 18.2038 32.0992 18.8406 32.3737C19.3928 32.4835 20.0508 32.5018 20.5603 32.4835C21.1335 32.3919 21.2398 32.1541 21.0699 31.8246C20.8149 31.3305 20.6451 30.6901 20.5815 30.3423Z" fill="#EFEFEF"/>
<path d="M20.8149 6.57104C21.5154 6.91874 22.4922 6.82726 22.8529 6.80894C22.9379 6.80894 23.7872 6.68084 23.8296 6.69904C23.9146 6.71736 23.9146 6.77231 23.9146 6.77231C23.9146 6.77231 23.5961 6.91863 22.8742 6.95526C22.1948 6.99179 21.3881 6.95526 20.9423 6.77231C20.4114 6.57104 20.8149 6.57104 20.8149 6.57104ZM28.0333 6.91874C28.1606 6.99189 28.9887 7.26643 29.3496 7.5958C29.6681 7.88865 29.4983 7.87033 29.4344 7.79717C29.3496 7.70559 28.6913 7.32127 28.4367 7.2299C28.1819 7.13832 27.8633 6.97368 27.8633 6.93705C27.8633 6.90042 28.0333 6.91874 28.0333 6.91874Z" fill="black"/>
<path d="M20.7088 14.5131C21.3244 14.4765 21.9613 14.6047 22.3648 14.9706C22.5771 15.1536 22.9168 15.3548 22.8743 15.5378C22.8743 15.5928 22.7468 15.7392 22.6409 15.849C22.5772 15.9221 22.3862 16.0868 22.3223 16.1417C22.2376 16.1967 21.9402 16.398 21.8766 16.4346C21.8128 16.4712 21.7278 16.5628 21.6642 16.581C21.4521 16.6726 21.2184 16.5993 21.0062 16.5079C20.7939 16.4163 21.0487 16.398 20.8151 16.2516C20.2419 15.904 19.9233 15.666 20.1569 14.9889C20.1782 14.8608 20.4116 14.7144 20.7088 14.5131Z" fill="#EFEFEF"/>
<path opacity="0.4" d="M15.295 10.3226C13.3842 10.9814 8.52246 13.0676 7.14246 13.7081C8.28883 14.3303 8.81958 15.8307 8.98958 17.3497C9.01071 17.4962 9.03196 17.6242 9.05321 17.7705C9.07446 17.8987 9.09571 17.9901 9.11683 18.0452C9.11683 18.0635 9.11683 18.1001 9.13808 18.1182C10.3907 15.1721 14.8702 12.0611 15.0401 11.8232C15.1251 11.7134 14.9338 11.2376 15.2312 10.7802C15.6135 10.1945 16.3566 9.93818 15.295 10.3226ZM19.8383 24.1389C20.8148 22.4553 20.8361 20.8449 20.8148 18.96C20.8148 18.1731 21.473 17.0568 21.1333 17.3679C19.8596 18.5939 16.6537 20.8997 14.3396 21.0278C17.5878 20.9363 18.8617 22.3455 19.8383 24.1389Z" fill="black"/>
<path d="M5.27417 15.2634C6.48429 14.5132 12.7473 11.6402 14.2548 11.2376C15.762 10.8166 15.2949 10.3225 15.2949 10.3225C15.2949 10.3225 9.18054 12.5916 5.52892 14.5497" fill="black"/>
<path opacity="0.4" d="M23.1077 9.97489C22.6195 9.81015 22.2373 10.3043 22.3647 10.7801C22.4922 11.2559 23.6385 11.7865 23.5747 13.5251C23.5323 14.9525 23.1715 15.5379 23.1715 15.5379L22.3647 14.6597C22.3647 14.6597 22.2372 12.6833 21.9613 12.3904C21.6853 12.0977 20.8148 11.5669 20.4751 11.2925C20.1355 11.018 20.8572 10.652 20.8148 10.1396C20.7723 9.64552 21.1758 8.65729 21.1758 8.65729L23.1077 9.97489ZM26.0587 17.7705C26.0163 19.1428 26.3775 21.1741 26.5258 22.1442C26.6746 23.114 26.8656 23.1872 26.5258 23.6265C26.1862 24.0473 25.7403 24.7427 25.7403 24.7427L24.2753 24.6328C24.2753 24.6328 25.4431 23.3519 25.5066 23.114C25.5703 22.8762 24.9122 21.0646 24.9122 21.0646L26.0588 17.7705H26.0587ZM23.2352 4.9608C23.5325 5.52797 23.8933 5.78418 24.4665 5.94892C24.8062 6.05882 26.1437 6.20514 26.6745 5.69271C26.908 5.45481 26.7595 4.81427 26.7595 4.81427L25.5492 5.65607L23.9145 5.39986L23.7235 4.97901L23.2352 4.9608Z" fill="black"/>
<path d="M23.3625 6.22345C23.9145 6.53451 25.2945 6.82736 25.6766 6.8822C26.0587 6.95536 26.6745 6.53451 26.9716 6.42472C27.2902 6.29661 27.8422 6.22345 28.4791 6.71756C28.5429 6.77251 28.3304 7.01031 28.3304 7.01031C28.3091 6.99199 28.1819 6.99199 28.0119 6.91872C27.8421 6.84567 27.6935 6.79061 27.4387 6.80904C26.3771 6.91872 26.2074 7.22989 25.2732 7.04683C24.3391 6.86367 24.1056 6.71746 23.1927 6.75398" fill="#ACACAC"/>
<path d="M23.3625 6.22345C23.9145 6.53451 25.2945 6.82736 25.6766 6.8822C26.0587 6.95536 26.6745 6.53451 26.9716 6.42472C27.2902 6.29661 27.8422 6.22345 28.4791 6.71756C28.5429 6.77251 28.3304 7.01031 28.3304 7.01031C28.3091 6.99199 28.1819 6.99199 28.0119 6.91872C27.8421 6.84567 27.6935 6.79061 27.4387 6.80904C26.3771 6.91872 26.2074 7.22989 25.2732 7.04683C24.3391 6.86367 24.1056 6.71746 23.1927 6.75398" stroke="black" stroke-width="1.586" stroke-linejoin="round"/>
<path d="M23.1715 6.27832C23.8721 6.53454 25.2309 6.80907 25.613 6.88223C25.995 6.95549 26.6108 6.62601 26.908 6.46138C27.4389 6.16853 28.1181 6.40643 28.4368 6.71759C28.6489 6.91875 28.734 7.04697 28.734 7.10181C28.734 7.17497 28.4793 7.10181 28.4793 7.10181C28.3305 7.04686 28.1606 7.02865 28.0334 6.95528C27.8635 6.88223 27.6936 6.77243 27.439 6.79064C26.3774 6.90054 26.1651 7.2116 25.2523 7.02854C24.3394 6.84559 24.1058 6.68085 23.1293 6.73569" fill="#ACACAC"/>
<path d="M19.8808 23.3702C19.8383 23.3336 19.9233 23.297 19.8808 23.297C19.6049 23.297 19.2226 23.114 19.0103 22.8578C18.0974 21.7232 16.7598 20.973 14.3395 21.0279C10.7091 21.1011 9.26538 19.8202 8.98951 17.368C8.84076 16.0322 8.41626 14.7328 7.54576 14.0008L7.03613 14.2753C8.01276 15.0073 8.33126 16.1968 8.54363 17.8255C8.88326 20.2776 11.1761 21.4123 13.8511 21.4488C16.6324 21.4855 17.6303 21.9796 18.6705 23.1874C19.0101 23.5716 19.3924 23.6997 19.6895 23.7547L19.8808 23.3702Z" fill="black"/>
<path opacity="0.4" d="M29.7318 11.6036C29.7955 11.878 29.9653 12.4087 30.3049 12.6649C30.4536 12.793 30.4749 12.8295 30.3474 12.8295C30.2199 12.8295 29.2859 12.793 29.2859 12.793L29.0311 12.4087L29.7318 11.6036Z" fill="black"/>
</g>
<defs>
<clipPath id="clip0_447_1327">
<rect width="32" height="32" fill="white" transform="translate(0.932495 0.93927)"/>
</clipPath>
</defs>
</svg>
