<svg width="21" height="33" viewBox="0 0 21 33" fill="none" xmlns="http://www.w3.org/2000/svg">
<g clip-path="url(#clip0_447_1374)">
<path d="M14.0668 3.87532C12.2691 2.284 10.7211 0.667738 10.4048 0.332117C10.3973 0.326227 10.3883 0.321537 10.3783 0.318333C10.3682 0.315129 10.3575 0.313477 10.3466 0.313477C10.3357 0.313477 10.3249 0.315129 10.3149 0.318333C10.3048 0.321537 10.2958 0.326227 10.2883 0.332117C9.97203 0.667796 8.42398 2.284 6.62625 3.87532C-8.80399 18.5578 9.05656 28.4664 9.05656 28.4664L9.20632 28.541C9.33945 30.0701 9.67242 32.2707 9.67242 32.2707H11.0041C11.0041 32.2707 11.3369 30.0826 11.4701 28.541L11.6199 28.4539C11.6366 28.4664 29.4971 18.5578 14.0668 3.87532ZM10.3382 28.2425C10.3382 28.2425 9.53921 27.7329 9.32281 27.4718V27.4469L10.2883 11.459C10.2883 11.4093 10.3882 11.4093 10.3882 11.459L11.3536 27.4469V27.4718C11.1372 27.7329 10.3382 28.2426 10.3382 28.2426V28.2425Z" fill="#ACACAC"/>
</g>
<defs>
<clipPath id="clip0_447_1374">
<rect width="20" height="32" fill="white" transform="translate(0.346313 0.313477)"/>
</clipPath>
</defs>
</svg>
