<svg width="33" height="33" viewBox="0 0 33 33" fill="none" xmlns="http://www.w3.org/2000/svg">
<g clip-path="url(#clip0_447_1379)">
<path d="M10.4264 9.85781L11.2904 9.23275C11.1583 9.0502 10.9717 8.9142 10.7574 8.84426C10.5432 8.77433 10.3123 8.77405 10.0979 8.84346C9.88345 8.91288 9.69653 9.04843 9.56393 9.23066C9.43132 9.41289 9.35985 9.63244 9.35975 9.85781H10.4264ZM16.8264 30.1245C13.1487 30.1245 9.62171 28.6635 7.0212 26.063C4.4207 23.4625 2.95975 19.9355 2.95975 16.2578H0.826416C0.826416 20.5013 2.51213 24.5709 5.51271 27.5715C8.51329 30.5721 12.583 32.2578 16.8264 32.2578V30.1245ZM30.6931 16.2578C30.6931 18.0788 30.3344 19.882 29.6375 21.5644C28.9407 23.2467 27.9193 24.7754 26.6316 26.063C25.344 27.3507 23.8153 28.3721 22.133 29.0689C20.4506 29.7658 18.6474 30.1245 16.8264 30.1245V32.2578C21.0699 32.2578 25.1395 30.5721 28.1401 27.5715C31.1407 24.5709 32.8264 20.5013 32.8264 16.2578H30.6931ZM16.8264 2.39115C18.6474 2.39115 20.4506 2.74982 22.133 3.44668C23.8153 4.14355 25.344 5.16496 26.6316 6.4526C27.9193 7.74024 28.9407 9.26889 29.6375 10.9513C30.3344 12.6337 30.6931 14.4368 30.6931 16.2578H32.8264C32.8264 12.0143 31.1407 7.94469 28.1401 4.9441C25.1395 1.94352 21.0699 0.257813 16.8264 0.257812V2.39115ZM16.8264 0.257812C12.583 0.257813 8.51329 1.94352 5.51271 4.9441C2.51213 7.94469 0.826416 12.0143 0.826416 16.2578H2.95975C2.95975 12.5801 4.4207 9.0531 7.0212 6.4526C9.62171 3.85209 13.1487 2.39115 16.8264 2.39115V0.257812ZM11.4931 25.8578V9.85781H9.35975V25.8578H11.4931ZM9.56242 10.4829L23.4291 29.6829L25.1571 28.4327L11.2904 9.23275L9.56242 10.4829ZM22.1598 8.79115V21.5911H24.2931V8.79115H22.1598Z" fill="#ACACAC"/>
</g>
<defs>
<clipPath id="clip0_447_1379">
<rect width="32" height="32" fill="white" transform="translate(0.826416 0.257812)"/>
</clipPath>
</defs>
</svg>
