<svg width="33" height="33" viewBox="0 0 33 33" fill="none" xmlns="http://www.w3.org/2000/svg">
<g clip-path="url(#clip0_447_1286)">
<path d="M16.1464 32.2921C15.6904 32.2921 15.2664 32.1735 14.8704 31.9681L10.8317 29.6508C10.2251 29.3281 10.5291 29.2108 10.7117 29.1521C11.5304 28.8881 11.6824 28.8295 12.5331 28.3588C12.6237 28.3001 12.7464 28.3295 12.8371 28.3881L15.9344 30.1788C16.0544 30.2375 16.2077 30.2375 16.2984 30.1788L28.4144 23.4001C28.5344 23.3415 28.5957 23.2241 28.5957 23.0775V9.54946C28.5957 9.40279 28.5357 9.28546 28.4144 9.22679L16.2984 2.47879C16.1771 2.42012 16.0251 2.42012 15.9344 2.47879L3.8184 9.22679C3.69707 9.28546 3.63574 9.43213 3.63574 9.54946V23.0775C3.63574 23.1948 3.69707 23.3415 3.8184 23.4001L7.12774 25.2495C8.91974 26.1295 10.0424 25.1028 10.0424 24.0761V10.7241C10.0424 10.5481 10.1944 10.3721 10.4077 10.3721H11.9557C12.1384 10.3721 12.3197 10.5188 12.3197 10.7241V24.0748C12.3197 26.3935 11.0144 27.7428 8.73707 27.7428C8.0384 27.7428 7.49174 27.7428 5.94374 27.0095L2.75574 25.2495C2.37158 25.0382 2.05078 24.7283 1.82647 24.3516C1.60215 23.9749 1.48245 23.5452 1.47974 23.1068V9.57879C1.47974 8.69879 1.96507 7.87746 2.75574 7.43746L14.8717 0.657458C15.2662 0.455173 15.7031 0.34967 16.1464 0.34967C16.5897 0.34967 17.0266 0.455173 17.4211 0.657458L29.5384 7.43613C30.3277 7.87613 30.8131 8.69746 30.8131 9.57746V23.1055C30.8131 23.9855 30.3277 24.8068 29.5384 25.2481L17.4224 32.0255C17.0197 32.2 16.5853 32.2899 16.1464 32.2895M19.8811 22.9868C14.5677 22.9868 13.4744 20.6401 13.4744 18.6441C13.4744 18.4681 13.6264 18.2921 13.8384 18.2921H15.4171C15.5997 18.2921 15.7504 18.4095 15.7504 18.5855C15.9944 20.1401 16.6931 20.9028 19.9117 20.9028C22.4624 20.9028 23.5557 20.3455 23.5557 19.0255C23.5557 18.2628 23.2517 17.7055 19.2744 17.3241C15.9637 17.0001 13.8997 16.2975 13.8997 13.7441C13.8997 11.3668 15.9637 9.95746 19.4264 9.95746C23.3131 9.95746 25.2264 11.2495 25.4691 14.0668C25.4664 14.1622 25.4342 14.2544 25.3771 14.3308C25.3171 14.3895 25.2264 14.4481 25.1344 14.4481H23.5557C23.479 14.4463 23.405 14.4195 23.3449 14.3719C23.2848 14.3243 23.2418 14.2583 23.2224 14.1841C22.8571 12.5708 21.9157 12.0415 19.4264 12.0415C16.6317 12.0415 16.2984 12.9801 16.2984 13.6855C16.2984 14.5361 16.6931 14.8001 20.4584 15.2695C24.1931 15.7388 25.9544 16.4135 25.9544 18.9361C25.9237 21.5201 23.7384 22.9868 19.8811 22.9868Z" fill="#ACACAC"/>
</g>
<defs>
<clipPath id="clip0_447_1286">
<rect width="32" height="32" fill="white" transform="translate(0.146362 0.350769)"/>
</clipPath>
</defs>
</svg>
