<svg width="33" height="33" viewBox="0 0 33 33" fill="none" xmlns="http://www.w3.org/2000/svg">
<path d="M16.3755 19.0391C17.7562 19.0391 18.8755 17.9198 18.8755 16.5391C18.8755 15.1584 17.7562 14.0391 16.3755 14.0391C14.9948 14.0391 13.8755 15.1584 13.8755 16.5391C13.8755 17.9198 14.9948 19.0391 16.3755 19.0391Z" fill="#ACACAC"/>
<path d="M16.3755 22.2711C13.3706 22.3438 10.3733 21.9387 7.49549 21.0711C6.16611 20.6497 4.92622 19.9858 3.83849 19.1131C3.42342 18.8149 3.07776 18.4305 2.82523 17.9862C2.5727 17.5419 2.41928 17.0483 2.37549 16.5391C2.37549 14.8861 4.19149 13.2661 7.23349 12.2061C10.1882 11.2668 13.2754 10.8116 16.3755 10.8581C19.4342 10.8154 22.48 11.2623 25.3975 12.1821C26.6778 12.5902 27.8756 13.222 28.9355 14.0481C29.3435 14.3323 29.6839 14.7028 29.9328 15.1333C30.1816 15.5638 30.3328 16.0437 30.3755 16.5391C30.3755 18.2571 28.3455 19.9981 25.0755 21.0801C22.2534 21.9195 19.3193 22.3211 16.3755 22.2711ZM16.3755 12.0541C13.4096 12.0144 10.4563 12.4472 7.62649 13.3361C4.82649 14.3131 3.57149 15.6491 3.57149 16.5361C3.57149 17.4641 4.92049 18.9231 7.88249 19.9361C10.6356 20.7619 13.5021 21.1464 16.3755 21.0751C19.1919 21.1255 21.9994 20.7444 24.7005 19.9451C27.7755 18.9261 29.1755 17.4651 29.1755 16.5391C29.125 16.2213 29.0092 15.9175 28.8354 15.6467C28.6615 15.376 28.4334 15.1442 28.1655 14.9661C27.2172 14.2332 26.1472 13.6733 25.0045 13.3121C22.2135 12.4358 19.3005 12.0112 16.3755 12.0541Z" fill="#ACACAC"/>
<path d="M10.6955 29.008C10.229 29.0187 9.76797 28.9056 9.35946 28.68C7.92746 27.854 7.43146 25.472 8.03246 22.307C8.69511 19.2781 9.84327 16.3763 11.4325 13.714C12.9232 11.0431 14.8316 8.62795 17.0855 6.56004C18.0786 5.65474 19.2243 4.93258 20.4695 4.42704C20.9198 4.21598 21.4111 4.10657 21.9085 4.10657C22.4058 4.10657 22.8971 4.21598 23.3475 4.42704C24.8365 5.28504 25.3295 7.91304 24.6345 11.286C23.9514 14.1506 22.833 16.8935 21.3185 19.419C19.8802 22.0584 18.0318 24.4526 15.8425 26.512C14.8132 27.4528 13.6188 28.195 12.3195 28.701C11.7993 28.8941 11.2502 28.9979 10.6955 29.008ZM12.4685 14.308C10.9526 16.8574 9.85213 19.6317 9.20846 22.527C8.65546 25.442 9.18646 27.195 9.95846 27.641C10.7585 28.104 12.7005 27.665 15.0585 25.605C17.1485 23.632 18.9127 21.3402 20.2855 18.815C21.7364 16.4006 22.8092 13.7782 23.4665 11.039C24.1205 7.86404 23.5555 5.92004 22.7535 5.45804C22.4529 5.34286 22.1317 5.29131 21.8101 5.30663C21.4886 5.32194 21.1737 5.40381 20.8855 5.54704C19.7771 6.00438 18.7582 6.65367 17.8755 7.46504C15.7221 9.44582 13.8992 11.758 12.4755 14.314L12.4685 14.308Z" fill="#ACACAC"/>
<path d="M22.0525 29.021C20.6975 29.021 18.9765 28.201 17.1845 26.66C14.8912 24.5733 12.9505 22.1294 11.4375 19.423C9.86827 16.7974 8.7292 13.9376 8.06353 10.952C7.77484 9.63853 7.72135 8.28423 7.90553 6.95204C7.94812 6.45785 8.0986 5.97901 8.34637 5.54931C8.59414 5.1196 8.93316 4.74947 9.33953 4.46504C10.8265 3.60404 13.3495 4.48904 15.9245 6.77504C18.0651 8.79723 19.8829 11.1357 21.3145 13.709C22.8828 16.2734 24.0338 19.0706 24.7245 21.996C25.0256 23.3577 25.0721 24.7634 24.8615 26.142C24.8114 26.6505 24.652 27.142 24.3941 27.583C24.1362 28.024 23.786 28.4041 23.3675 28.697C22.9657 28.9198 22.5118 29.0316 22.0525 29.021ZM12.4725 18.821C13.924 21.4075 15.7778 23.7464 17.9645 25.75C20.2135 27.685 21.9975 28.101 22.7645 27.65C23.5645 27.185 24.1545 25.287 23.5465 22.216C22.8804 19.423 21.7764 16.7529 20.2755 14.305C18.9094 11.8422 17.1743 9.6029 15.1305 7.66504C12.7065 5.51304 10.7405 5.03204 9.93953 5.49604C9.68988 5.69892 9.485 5.95137 9.33784 6.23743C9.19068 6.52349 9.10442 6.83696 9.08453 7.15804C8.92554 8.34613 8.97733 9.55295 9.23753 10.723C9.87784 13.5782 10.9703 16.3127 12.4735 18.823L12.4725 18.821Z" fill="#ACACAC"/>
</svg>
