<svg width="33" height="33" viewBox="0 0 33 33" fill="none" xmlns="http://www.w3.org/2000/svg">
<path d="M16.4498 18.886C15.9688 19.107 15.4418 19.395 14.3868 19.974C13.9868 20.199 13.5688 20.424 13.1798 20.636C13.1528 20.609 13.1248 20.575 13.0978 20.547C11.0108 18.317 7.15081 16.742 7.31481 13.747C7.37581 12.656 7.75082 9.79202 14.7278 6.31402C20.4698 3.48402 25.0388 4.26802 25.8278 6.00702C26.9618 8.48602 23.3788 13.099 17.4488 13.768C16.7925 13.9011 16.1147 13.8851 15.4654 13.721C14.8162 13.5569 14.2121 13.249 13.6978 12.82C13.3838 12.479 13.3368 12.459 13.2208 12.527C13.0298 12.627 13.1528 12.936 13.2208 13.113C13.447 13.5226 13.753 13.8826 14.1208 14.1718C14.4885 14.4611 14.9105 14.6737 15.3618 14.797C17.6954 15.3014 20.1285 15.0604 22.3178 14.108C25.9118 12.717 28.7178 8.85002 27.8958 5.60802C27.0708 2.32102 21.6148 1.23702 16.4528 3.07102C13.2201 4.16042 10.2333 5.87533 7.66281 8.11802C4.81881 10.778 4.36882 13.09 4.55282 14.058C5.21482 17.495 9.95282 19.732 11.8528 21.389C11.7528 21.444 11.6688 21.489 11.5938 21.532C10.6458 22.003 7.03182 23.892 6.13082 25.89C5.10782 28.154 6.29482 29.777 7.07881 29.995C8.2603 30.278 9.50068 30.185 10.6267 29.7289C11.7528 29.2728 12.7083 28.4765 13.3598 27.451C13.9131 26.6007 14.2528 25.6293 14.3502 24.6195C14.4475 23.6097 14.2995 22.5914 13.9188 21.651C14.1434 21.4719 14.383 21.3123 14.6348 21.174C15.1188 20.888 15.5798 20.606 15.9888 20.388C17.3892 19.7321 18.9174 19.3943 20.4638 19.399C23.7098 19.781 24.3508 21.806 24.2278 22.659C24.1703 22.9617 24.0486 23.2485 23.8709 23.5001C23.6932 23.7518 23.4637 23.9625 23.1978 24.118C22.9728 24.261 22.8978 24.309 22.9178 24.411C22.9448 24.561 23.0538 24.554 23.2448 24.527C23.7325 24.3729 24.1622 24.0748 24.4774 23.672C24.7925 23.2692 24.9785 22.7805 25.0108 22.27C25.1108 20.27 23.2038 18.076 19.8278 18.096C18.8169 18.0978 17.8162 18.2972 16.8818 18.683C16.7318 18.745 16.5861 18.8117 16.4448 18.883L16.4498 18.886ZM11.6248 26.725C10.5468 27.898 9.04681 28.341 8.39881 27.966C7.69881 27.566 7.97582 25.831 9.29882 24.59C10.0824 23.884 10.9293 23.2517 11.8288 22.701C11.9858 22.601 12.2178 22.469 12.4968 22.301L12.5718 22.26L12.7358 22.16C12.9718 22.9511 12.9932 23.7907 12.798 24.5929C12.6028 25.395 12.1979 26.1308 11.6248 26.725Z" fill="#ACACAC"/>
</svg>
