<svg width="38" height="22" viewBox="0 0 38 22" fill="none" xmlns="http://www.w3.org/2000/svg">
<g clip-path="url(#clip0_447_1291)">
<path d="M18.866 0.856995C13.9063 0.856995 10.8064 3.10527 9.56652 7.6017C11.4264 5.35342 13.5962 4.51033 16.0761 5.07244C17.4909 5.39307 18.5023 6.32376 19.6217 7.35378C21.4452 9.03192 23.5556 10.9741 28.1654 10.9741C33.125 10.9741 36.2249 8.72577 37.4648 4.22935C35.6049 6.47763 33.4351 7.32071 30.9552 6.75861C29.5404 6.43797 28.5291 5.50728 27.4097 4.47727C25.5861 2.79913 23.4757 0.856995 18.866 0.856995ZM9.56652 10.9741C4.60687 10.9741 1.50697 13.2223 0.26709 17.7188C2.12698 15.4705 4.2968 14.6274 6.77669 15.1895C8.19152 15.5101 9.20283 16.4408 10.3222 17.4708C12.1458 19.149 14.2562 21.0911 18.866 21.0911C23.8256 21.0911 26.9255 18.8428 28.1654 14.3464C26.3055 16.5947 24.1357 17.4378 21.6558 16.8757C20.241 16.555 19.2297 15.6243 18.1102 14.5943C16.2867 12.9162 14.1763 10.9741 9.56652 10.9741Z" fill="#ACACAC"/>
</g>
<defs>
<clipPath id="clip0_447_1291">
<rect width="37.1977" height="20.2868" fill="white" transform="translate(0.26709 0.856995)"/>
</clipPath>
</defs>
</svg>
