<svg width="33" height="33" viewBox="0 0 33 33" fill="none" xmlns="http://www.w3.org/2000/svg">
<path d="M24.2765 8.65429C25.1277 8.85233 25.9013 9.29808 26.4995 9.93529C26.829 10.2802 27.1151 10.664 27.3515 11.0783C27.3625 11.1233 25.8175 12.1613 24.8805 12.7403C24.8465 12.7633 24.7115 12.6163 24.5585 12.3903C24.3873 12.0961 24.1443 11.85 23.8523 11.6751C23.5603 11.5003 23.2287 11.4023 22.8885 11.3903C21.8115 11.3163 21.1175 11.8803 21.1225 12.8233C21.1132 13.055 21.166 13.2849 21.2755 13.4893C21.5125 13.9793 21.9525 14.2733 23.3345 14.8723C25.8785 15.9673 26.9705 16.6893 27.6445 17.7153C28.0254 18.3636 28.2601 19.0873 28.3319 19.8358C28.4038 20.5842 28.3111 21.3394 28.0605 22.0483C27.7159 22.8257 27.1696 23.4968 26.4782 23.9918C25.7868 24.4868 24.9755 24.7877 24.1285 24.8633C23.2282 24.9666 22.3185 24.9572 21.4205 24.8353C20.045 24.6093 18.7779 23.9491 17.8045 22.9513C17.4367 22.5371 17.1253 22.0761 16.8785 21.5803C16.9823 21.5031 17.0915 21.4336 17.2055 21.3723C17.3635 21.2823 17.9615 20.9383 18.5255 20.6113L19.5495 20.0113L19.7635 20.3233C20.1239 20.8387 20.5827 21.2778 21.1135 21.6153C21.6495 21.9093 22.2567 22.0486 22.8673 22.0177C23.4779 21.9868 24.0679 21.7869 24.5715 21.4403C24.8312 21.1871 24.9936 20.8505 25.0302 20.4896C25.0668 20.1287 24.9752 19.7665 24.7715 19.4663C24.4955 19.0713 23.9315 18.7393 22.3285 18.0443C21.0715 17.6205 19.9267 16.9179 18.9795 15.9893C18.5284 15.4753 18.1953 14.8687 18.0035 14.2123C17.8616 13.4645 17.8407 12.6987 17.9415 11.9443C18.1297 11.0761 18.5802 10.2868 19.232 9.68328C19.8838 9.07976 20.7054 8.69121 21.5855 8.57029C22.4816 8.46321 23.3888 8.49152 24.2765 8.65429ZM15.9335 10.1373L15.9445 11.5913H11.3145V24.7393H8.04947V11.5943H3.41947V10.1663C3.40716 9.67726 3.42051 9.18792 3.45947 8.70029C3.47647 8.67729 6.29147 8.66629 9.70447 8.67229L15.9155 8.68929L15.9335 10.1373Z" fill="#ACACAC"/>
</svg>
