<svg width="48" height="48" viewBox="0 0 48 48" fill="none" xmlns="http://www.w3.org/2000/svg">
<path d="M32 44.0541V38.3141C32.0751 37.3604 31.9462 36.4017 31.6221 35.5017C31.2979 34.6016 30.7859 33.7809 30.12 33.0941C36.4 32.3941 43 30.0141 43 19.0941C42.9995 16.3017 41.9254 13.6165 40 11.5941C40.9117 9.15109 40.8473 6.45077 39.82 4.05407C39.82 4.05407 37.46 3.35407 32 7.01407C27.4161 5.77172 22.584 5.77172 18 7.01407C12.54 3.35407 10.18 4.05407 10.18 4.05407C9.15278 6.45077 9.08832 9.15109 10 11.5941C8.06029 13.6315 6.98508 16.341 7.00003 19.1541C7.00003 29.9941 13.6 32.3741 19.88 33.1541C19.222 33.834 18.7146 34.6449 18.3906 35.5339C18.0667 36.4229 17.9336 37.3702 18 38.3141V44.0541" stroke="#73A4E4" stroke-width="1.5" stroke-linecap="round" stroke-linejoin="round"/>
<path d="M18 40.054C12 42 7 40.054 4 34.054" stroke="#73A4E4" stroke-width="1.5" stroke-linecap="round" stroke-linejoin="round"/>
</svg>
