<svg width="32" height="33" viewBox="0 0 32 33" fill="none" xmlns="http://www.w3.org/2000/svg">
<path d="M16.0001 2.83744C14.2491 2.83744 12.5153 3.18232 10.8976 3.85238C9.27996 4.52244 7.81011 5.50457 6.57199 6.74268C4.07151 9.24317 2.66675 12.6346 2.66675 16.1708C2.66675 22.0641 6.49341 27.0641 11.7867 28.8374C12.4534 28.9441 12.6667 28.5308 12.6667 28.1708V25.9174C8.97341 26.7174 8.18675 24.1308 8.18675 24.1308C7.57341 22.5841 6.70675 22.1708 6.70675 22.1708C5.49342 21.3441 6.80008 21.3708 6.80008 21.3708C8.13341 21.4641 8.84008 22.7441 8.84008 22.7441C10.0001 24.7708 11.9601 24.1708 12.7201 23.8508C12.8401 22.9841 13.1867 22.3974 13.5601 22.0641C10.6001 21.7308 7.49341 20.5841 7.49341 15.5041C7.49341 14.0241 8.00008 12.8374 8.86675 11.8908C8.73342 11.5574 8.26675 10.1708 9.00008 8.37077C9.00008 8.37077 10.1201 8.01077 12.6667 9.73077C13.7201 9.43744 14.8667 9.29077 16.0001 9.29077C17.1334 9.29077 18.2801 9.43744 19.3334 9.73077C21.8801 8.01077 23.0001 8.37077 23.0001 8.37077C23.7334 10.1708 23.2667 11.5574 23.1334 11.8908C24.0001 12.8374 24.5067 14.0241 24.5067 15.5041C24.5067 20.5974 21.3867 21.7174 18.4134 22.0508C18.8934 22.4641 19.3334 23.2774 19.3334 24.5174V28.1708C19.3334 28.5308 19.5467 28.9574 20.2267 28.8374C25.5201 27.0508 29.3334 22.0641 29.3334 16.1708C29.3334 14.4198 28.9885 12.686 28.3185 11.0683C27.6484 9.45065 26.6663 7.9808 25.4282 6.74268C24.1901 5.50457 22.7202 4.52244 21.1025 3.85238C19.4849 3.18232 17.751 2.83744 16.0001 2.83744Z" fill="white"/>
</svg>
