<svg width="48" height="48" viewBox="0 0 48 48" fill="none" xmlns="http://www.w3.org/2000/svg">
<path d="M14 34V20M42 16V32C42 34.6522 40.9464 37.1957 39.0711 39.0711C37.1957 40.9464 34.6522 42 32 42H16C13.3478 42 10.8043 40.9464 8.92893 39.0711C7.05357 37.1957 6 34.6522 6 32V16C6 13.3478 7.05357 10.8043 8.92893 8.92893C10.8043 7.05357 13.3478 6 16 6H32C34.6522 6 37.1957 7.05357 39.0711 8.92893C40.9464 10.8043 42 13.3478 42 16Z" stroke="#73A4E4" stroke-width="1.5" stroke-linecap="round" stroke-linejoin="round"/>
<path d="M22 34V27.5M22 27.5V20M22 27.5C22 20 34 20 34 27.5V34M14 14.02L14.02 13.998" stroke="#73A4E4" stroke-width="1.5" stroke-linecap="round" stroke-linejoin="round"/>
</svg>
