<svg width="32" height="33" viewBox="0 0 32 33" fill="none" xmlns="http://www.w3.org/2000/svg">
<path d="M25.3333 4.17077C26.0406 4.17077 26.7189 4.45172 27.219 4.95182C27.719 5.45192 28 6.1302 28 6.83744V25.5041C28 26.2114 27.719 26.8896 27.219 27.3897C26.7189 27.8898 26.0406 28.1708 25.3333 28.1708H6.66667C5.95942 28.1708 5.28115 27.8898 4.78105 27.3897C4.28095 26.8896 4 26.2114 4 25.5041V6.83744C4 6.1302 4.28095 5.45192 4.78105 4.95182C5.28115 4.45172 5.95942 4.17077 6.66667 4.17077H25.3333ZM24.6667 24.8374V17.7708C24.6667 16.618 24.2087 15.5124 23.3936 14.6972C22.5784 13.8821 21.4728 13.4241 20.32 13.4241C19.1867 13.4241 17.8667 14.1174 17.2267 15.1574V13.6774H13.5067V24.8374H17.2267V18.2641C17.2267 17.2374 18.0533 16.3974 19.08 16.3974C19.5751 16.3974 20.0499 16.5941 20.3999 16.9442C20.75 17.2942 20.9467 17.769 20.9467 18.2641V24.8374H24.6667ZM9.17333 11.5841C9.76742 11.5841 10.3372 11.3481 10.7573 10.928C11.1773 10.5079 11.4133 9.93819 11.4133 9.34411C11.4133 8.10411 10.4133 7.09077 9.17333 7.09077C8.57571 7.09077 8.00257 7.32818 7.57999 7.75076C7.1574 8.17334 6.92 8.74649 6.92 9.34411C6.92 10.5841 7.93333 11.5841 9.17333 11.5841ZM11.0267 24.8374V13.6774H7.33333V24.8374H11.0267Z" fill="white"/>
</svg>
