<svg width="32" height="33" viewBox="0 0 32 33" fill="none" xmlns="http://www.w3.org/2000/svg">
<path d="M5.33341 27.0082C4.60008 27.0082 3.97253 26.7473 3.45075 26.2255C2.92897 25.7038 2.66764 25.0758 2.66675 24.3415V8.34154C2.66675 7.60821 2.92808 6.98065 3.45075 6.45888C3.97341 5.9371 4.60097 5.67577 5.33341 5.67488H26.6667C27.4001 5.67488 28.0281 5.93621 28.5507 6.45888C29.0734 6.98154 29.3343 7.6091 29.3334 8.34154V24.3415C29.3334 25.0749 29.0725 25.7029 28.5507 26.2255C28.029 26.7482 27.401 27.0091 26.6667 27.0082H5.33341ZM16.0001 17.6749L26.6667 11.0082V8.34154L16.0001 15.0082L5.33341 8.34154V11.0082L16.0001 17.6749Z" fill="white"/>
</svg>
