<svg width="48" height="48" viewBox="0 0 48 48" fill="none" xmlns="http://www.w3.org/2000/svg">
<path d="M46 6.02011C46 6.02011 41.964 8.40411 39.72 9.08011C38.5155 7.69513 36.9147 6.7135 35.1341 6.26796C33.3535 5.82243 31.479 5.9345 29.7642 6.58902C28.0493 7.24353 26.5769 8.40891 25.546 9.92754C24.515 11.4462 23.9754 13.2448 24 15.0801V17.0801C20.4853 17.1712 17.0025 16.3917 13.862 14.811C10.7215 13.2303 8.02063 10.8974 6 8.02011C6 8.02011 -2 26.0201 16 34.0201C11.8811 36.816 6.97431 38.218 2 38.0201C20 48.0201 42 38.0201 42 15.0201C42 14.4641 41.944 13.9081 41.84 13.3601C43.88 11.3481 46 6.02011 46 6.02011Z" stroke="#73A4E4" stroke-width="1.5" stroke-linecap="round" stroke-linejoin="round"/>
</svg>
